<svg id="Layer_1" data-name="Layer 1" xmlns="http://www.w3.org/2000/svg" viewBox="0 0 200 200"><defs><style>.cls-1{fill:#2f2912;}.cls-1,.cls-2,.cls-3,.cls-4{fill-rule:evenodd;}.cls-2{fill:#ffda00;}.cls-3{fill:#fff;}.cls-4{fill:#008f4a;}</style></defs><title>Eichel_1</title><path class="cls-1" d="M65.73,116.08V58.86c0-9.79,4.76-15.25,12.84-19.84,8.73-5,14.08-6.6,19.83-15.53L100,21l1.6,2.49c5.76,8.93,11.1,10.57,19.83,15.53,8.08,4.59,12.88,10,12.87,19.84,0,0-.06,58.18-.09,58.58,21.31,29.08-1.63,61.84-34.21,61.56-32.59.28-55.52-32.48-34.21-61.56C65.77,117,65.73,116.59,65.73,116.08Z"/><path class="cls-2" d="M67.64,116.08V58.86c.52-10.17,5.79-14.73,11.87-18.18,8.77-5,14.41-6.71,20.49-16.16,6.09,9.45,11.72,11.17,20.49,16.16,6.08,3.45,11.35,8,11.87,18.18v57.22c0,2.09.22,2.31-1.92,3.57-10.24,6-50.64,6-60.87,0C67.42,118.39,67.64,118.17,67.64,116.08Z"/><path class="cls-1" d="M69.57,117.38a9.24,9.24,0,0,0,1,.63c.24.13.5.27.77.4V67c0-10.82-.2-17.39,8.42-24.21-6.42,3.79-10.18,8-10.17,16.09v57.22C69.55,116.37,69.53,117,69.57,117.38Z"/><path class="cls-1" d="M129.79,117c-.21.14-.44.26-.66.39-4.95,2.91-16.3,3.78-23.36,4l22.37-6.61h-22l22-5-21.86-1.61L127.86,104l-21.57-1.87,21.49-3.94L106,96.07l21.4-3.48L106,90.15l21.14-3.55-21.23-2.37L127,81l-21.5-2.62,21.72-2.81-21.1-2.75L127,70,105.77,66.9,126.91,64l-21.63-2.86,20.8-3-20.42-2.36,18.92-3-19.07-2.19,17.3-2.86-17.34-1.52,13.84-1.78-14.16-1.66,10.09-1.65-11.3-2.3,6.17-1-7.25-2.21,3.24-.6c4,3.07,8.41,5.11,13.12,7.79,6.69,3.81,10.58,7.87,10.57,16Zm-24-82.15-4.32-2.26,1.12-.52-.06-.14A31.46,31.46,0,0,0,105.82,34.89Z"/><path class="cls-3" d="M66.51,119.71c-.83,1.21-1.6,2.46-2.3,3.73l.51.39C70.49,128,85.22,130,100,130s29.5-2.07,35.29-6.21a4.91,4.91,0,0,0,.51-.39c-.7-1.27-1.47-2.52-2.3-3.73a7.56,7.56,0,0,1-2.09,1.58c-10.85,6.39-51.95,6.39-62.8,0A7.56,7.56,0,0,1,66.51,119.71Z"/><path class="cls-4" d="M130.63,128.24c1.09,1,2.2,2,3.31,3-.91,1.18-1.84,2.37-2.81,3.55-1.21-1.07-2.42-2.15-3.61-3.25.84-1,1.64-2.08,2.44-3.13-1.35.43-2.81.82-4.37,1.17l-.08.09-.07-.06c-1,.23-2.16.46-3.3.66l1.63,1.55q-1.44,1.74-3,3.48c-1.18-1.09-2.34-2.18-3.49-3.29l1-1.15c-.63.09-5,.56-5.48.6l.72.72c-1,1.14-2,2.29-3.12,3.42Q108.7,134,107,132.32l.41-.44-4.54.15.34.35q-1.6,1.69-3.25,3.37c-1.1-1.12-2.19-2.24-3.25-3.37l.33-.35-4.52-.15.4.44q-1.67,1.68-3.37,3.33c-1.06-1.13-2.1-2.28-3.12-3.42l.71-.71-3.48-.36q-1-.1-2-.24l1,1.14c-1.15,1.11-2.31,2.2-3.49,3.29q-1.53-1.74-3-3.48l1.63-1.55c-1.15-.2-2.25-.42-3.31-.65l-.06.05-.08-.09c-1.55-.35-3-.74-4.36-1.16q1.19,1.56,2.43,3.12-1.78,1.65-3.61,3.25c-1-1.18-1.9-2.37-2.81-3.55,1.12-1,2.22-2,3.31-3-1-.35-2-.72-2.86-1.11l-2.11,1.93q-.92-1.23-1.77-2.46c-.44,1-.84,2-1.2,3l.92,1.27c-.59.53-1.19,1-1.79,1.56a33.14,33.14,0,0,0-.69,3.26l-.16,1.09c-.12.93-.2,1.87-.25,2.81L61,141.47l-1.5,1.19a32.55,32.55,0,0,0,.34,3.25c1-.76,2-1.54,2.95-2.33.94,1.1,1.9,2.18,2.88,3.27-1.26,1-2.52,2-3.78,2.89-.57-.61-1.13-1.23-1.68-1.85.19.86.41,1.73.68,2.59l.1.3q.1.36.24.72l.13.39.06.17.06.17c.14.37.3.77.44,1.13l.36.82c.74.78,1.47,1.54,2.23,2.31l-.8.56c.45.82.93,1.62,1.45,2.38l1.34-1c1,1,2,2,3,3l-1.9,1.3c.6.72,1.24,1.41,1.89,2.07.7-.47,1.39-.94,2.08-1.43,1,1,2.08,1.91,3.14,2.85l-2.1,1.42c.77.61,1.55,1.2,2.36,1.77l1.9-1.29c1.07.93,2.15,1.85,3.23,2.76-.43.3-.87.59-1.31.87.94.52,1.9,1,2.88,1.43l.67-.45,1.84,1.48c.71.27,1.44.52,2.17.76l2.31.66,1.17.29,1.51.32-.91-.68c1.23-.84,2.45-1.71,3.68-2.6,1.16.9,2.34,1.78,3.51,2.65l-1.83,1.27c1.39.13,2.8.2,4.2.2s2.81-.07,4.2-.2l-1.83-1.27q1.77-1.31,3.51-2.65c1.23.89,2.45,1.76,3.68,2.6l-.91.68,1.45-.31.34-.08.11,0,2.16-.58.88-.27c.73-.23,1.51-.5,2.22-.77l1.84-1.48.67.45c1-.44,1.94-.91,2.88-1.43l-1.32-.87q1.64-1.37,3.24-2.76c.63.44,1.27.87,1.9,1.29.8-.57,1.59-1.16,2.35-1.77l-2.09-1.42c1.06-.94,2.1-1.89,3.14-2.85l2.07,1.44c.66-.67,1.29-1.36,1.9-2.08l-1.9-1.3c1-1,2-2,3-3l1.34,1c.52-.76,1-1.56,1.45-2.38l-.8-.56c.76-.77,1.5-1.54,2.24-2.31.11-.27.23-.55.35-.82l.58-1.51.08-.26.08-.21.1-.3,0-.11.15-.49c.27-.86.5-1.73.69-2.6-.56.63-1.12,1.25-1.69,1.86-1.26-.94-2.52-1.91-3.78-2.89q1.47-1.62,2.88-3.27c1,.79,2,1.57,3,2.33.16-1.08.27-2.17.33-3.25-.5-.4-1-.79-1.5-1.19l1.51-1.85c0-.94-.13-1.87-.24-2.8v-.25l0-.16v-.27l-.07-.42c-.18-1.09-.41-2.18-.69-3.26-.6-.51-1.2-1-1.79-1.56l.92-1.27c-.36-1-.76-2-1.2-3-.57.82-1.16,1.64-1.77,2.47-.71-.65-1.42-1.29-2.12-2A27.35,27.35,0,0,1,130.63,128.24Zm-18.75,45.55c-1.24-.84-2.47-1.71-3.71-2.59q1.71-1.35,3.4-2.74c1.23.9,2.47,1.79,3.7,2.65C114.14,172,113,172.91,111.88,173.79Zm5.62-4.52q-1.86-1.29-3.73-2.64c1.11-.93,2.2-1.87,3.29-2.83,1.24.92,2.49,1.82,3.73,2.7C119.7,167.44,118.61,168.36,117.5,169.27Zm5.44-4.65q-1.87-1.32-3.75-2.7c1.07-1,2.14-1.94,3.19-2.93,1.25.94,2.49,1.86,3.74,2.76Q124.54,163.19,122.94,164.62Zm5.25-4.81c-1.25-.89-2.51-1.81-3.76-2.76,1-1,2.07-2,3.09-3q1.88,1.44,3.75,2.82Q129.76,158.34,128.19,159.81Zm5.07-4.95q-1.89-1.38-3.78-2.82,1.53-1.56,3-3.14,1.88,1.47,3.76,2.88C135.26,152.82,134.27,153.84,133.26,154.86Zm-33.26,19c-1.18-.86-2.37-1.74-3.55-2.64q1.78-1.32,3.55-2.7,1.77,1.38,3.55,2.69Q101.78,172.63,100,173.91Zm5.84-4.41q-1.8-1.32-3.59-2.7c1.15-.91,2.3-1.85,3.44-2.79,1.19.93,2.39,1.85,3.58,2.75Q107.56,168.16,105.84,169.5Zm5.64-4.56q-1.82-1.35-3.62-2.76,1.68-1.43,3.34-2.89c1.2,1,2.4,1.89,3.6,2.81Q113.15,163.54,111.48,164.94Zm5.45-4.71c-1.21-.92-2.43-1.86-3.63-2.81,1.09-1,2.16-2,3.23-3q1.8,1.46,3.63,2.87Q118.56,158.78,116.93,160.23Zm5.28-4.87q-1.84-1.41-3.66-2.87c1.06-1,2.1-2.06,3.14-3.11,1.2,1,2.42,2,3.64,2.94C124.3,153.34,123.26,154.36,122.21,155.36Zm5.09-5c-1.23-1-2.46-2-3.67-3,1-1.07,2-2.14,3-3.22,1.21,1,2.43,2,3.66,3Q128.84,148.77,127.3,150.34Zm4.9-5.2q-1.84-1.48-3.68-3,1.48-1.68,2.91-3.36c1.22,1.05,2.44,2.08,3.68,3.09Q133.69,143.5,132.2,145.14Zm4.7-5.4c-1.24-1-2.48-2.06-3.7-3.11q1.43-1.75,2.78-3.51c1.23,1.07,2.46,2.14,3.7,3.18Q138.33,138,136.9,139.74Zm-48.78,34c1.24-.84,2.47-1.71,3.71-2.6q-1.71-1.33-3.4-2.73c-1.23.9-2.46,1.79-3.7,2.65C85.86,172,87,172.91,88.12,173.79Zm6-4.29c1.19-.88,2.39-1.78,3.58-2.7-1.15-.91-2.3-1.85-3.44-2.79-1.19.93-2.39,1.85-3.58,2.75Q92.44,168.16,94.17,169.5Zm5.83-4.45q1.74-1.38,3.47-2.8-1.74-1.41-3.47-2.86-1.73,1.46-3.47,2.86Q98.26,163.67,100,165.05Zm5.65-4.62q1.69-1.43,3.37-2.9-1.77-1.44-3.51-2.92-1.67,1.5-3.37,3Q103.88,159,105.65,160.43Zm5.46-4.77q1.65-1.49,3.27-3-1.77-1.47-3.53-3c-1.07,1-2.17,2.06-3.27,3.07Q109.34,154.22,111.11,155.66Zm5.29-4.93q1.6-1.54,3.16-3.12-1.78-1.5-3.54-3.05-1.56,1.6-3.17,3.18C114,148.75,115.21,149.75,116.4,150.73Zm5.11-5.1q1.55-1.6,3-3.24-1.8-1.54-3.56-3.14c-1,1.11-2,2.22-3.07,3.31Q119.72,144.12,121.51,145.63Zm4.91-5.29q1.52-1.68,2.94-3.38c-1.2-1.06-2.4-2.13-3.58-3.22q-1.44,1.72-3,3.45Q124.62,138.78,126.42,140.34ZM82.49,169.27q1.88-1.29,3.74-2.64c-1.11-.93-2.2-1.87-3.29-2.83q-1.86,1.38-3.73,2.7Q80.85,167.91,82.49,169.27Zm6-4.33q1.82-1.35,3.62-2.76-1.68-1.43-3.34-2.89-1.8,1.43-3.6,2.81C86.3,163.06,87.41,164,88.52,164.94Zm5.83-4.51q1.77-1.41,3.51-2.86c-1.13-1-2.26-2-3.37-3q-1.74,1.48-3.5,2.92Q92.66,159,94.35,160.43Zm5.65-4.67c1.14-1,2.28-2,3.4-3-1.14-1-2.28-2-3.4-3-1.12,1-2.26,2-3.4,3C97.72,153.8,98.86,154.79,100,155.76Zm5.47-4.83q1.66-1.53,3.3-3.08c-1.15-1-2.29-2.06-3.43-3.1-1.08,1.06-2.18,2.1-3.3,3.14C103.17,148.92,104.32,149.93,105.47,150.93Zm5.29-5c1.09-1,2.15-2.12,3.2-3.19q-1.74-1.57-3.45-3.18c-1.05,1.1-2.11,2.18-3.19,3.26Q109,144.39,110.76,145.92Zm5.12-5.18q1.58-1.67,3.09-3.33c-1.18-1.08-2.33-2.17-3.48-3.27q-1.5,1.71-3.08,3.41C113.55,138.62,114.71,139.69,115.88,140.74ZM77.06,164.62q1.88-1.32,3.75-2.7c-1.07-1-2.14-1.94-3.19-2.93-1.25.94-2.49,1.86-3.74,2.76Q75.46,163.19,77.06,164.62Zm6-4.39q1.83-1.38,3.64-2.82c-1.09-1-2.17-2-3.24-3q-1.8,1.46-3.63,2.87C80.91,158.28,82,159.26,83.07,160.23Zm5.82-4.57q1.77-1.44,3.53-2.92c-1.1-1-2.19-2-3.27-3.07-1.17,1-2.34,2-3.53,3Q87.24,154.17,88.89,155.66Zm5.64-4.73c1.15-1,2.3-2,3.43-3-1.11-1-2.22-2.08-3.3-3.14-1.13,1-2.27,2.08-3.43,3.1Q92.86,149.39,94.53,150.93ZM100,146q1.68-1.56,3.33-3.15-1.69-1.6-3.33-3.22-1.64,1.62-3.33,3.22Q98.32,144.46,100,146Zm5.3-5.09c1.09-1.08,2.16-2.18,3.22-3.28q-1.69-1.64-3.35-3.3Q103.58,136,102,137.7,103.6,139.32,105.3,140.93ZM71.81,159.81q1.89-1.34,3.76-2.76c-1-1-2.07-2-3.09-3q-1.87,1.44-3.75,2.82Q70.24,158.34,71.81,159.81Zm6-4.45q1.83-1.41,3.65-2.87-1.59-1.55-3.13-3.11-1.81,1.5-3.65,2.94C75.7,153.34,76.74,154.36,77.8,155.36Zm5.8-4.63c1.19-1,2.38-2,3.55-3q-1.61-1.58-3.16-3.18-1.77,1.55-3.55,3.05Q82,149.19,83.6,150.73Zm5.64-4.81q1.74-1.53,3.45-3.11c-1.08-1.08-2.15-2.16-3.2-3.26q-1.71,1.6-3.45,3.18C87.09,143.8,88.16,144.87,89.24,145.92Zm5.46-5c1.14-1.06,2.25-2.15,3.36-3.23-1.1-1.11-2.17-2.23-3.23-3.35q-1.65,1.67-3.35,3.3C92.54,138.75,93.61,139.85,94.7,140.93Zm-28,13.93q1.89-1.38,3.77-2.82-1.52-1.56-3-3.14-1.87,1.47-3.76,2.89Q65.23,153.33,66.74,154.86Zm6-4.52c1.23-1,2.46-2,3.67-3q-1.53-1.6-3-3.22c-1.22,1-2.44,2-3.67,3Q71.16,148.77,72.7,150.34Zm5.8-4.71q1.8-1.51,3.57-3.07c-1-1.09-2.06-2.2-3.07-3.31q-1.75,1.59-3.56,3.14Q76.94,144,78.5,145.63Zm5.62-4.89c1.17-1.05,2.33-2.12,3.47-3.19-1-1.13-2.08-2.27-3.09-3.41q-1.71,1.65-3.47,3.27C82,138.52,83.07,139.64,84.12,140.74Zm-16.32,4.4q1.85-1.48,3.69-3-1.5-1.68-2.92-3.36c-1.22,1.05-2.44,2.08-3.68,3.09Q66.32,143.5,67.8,145.14Zm5.78-4.8c1.21-1,2.4-2.09,3.59-3.15q-1.52-1.73-3-3.45c-1.18,1.09-2.38,2.16-3.58,3.22Q72.07,138.66,73.58,140.34Zm-10.48-.6c1.24-1,2.48-2.06,3.7-3.11q-1.42-1.75-2.78-3.51c-1.22,1.07-2.46,2.14-3.7,3.18Q61.67,138,63.1,139.74Z"/></svg>