<svg id="Layer_1" data-name="Layer 1" xmlns="http://www.w3.org/2000/svg" viewBox="0 0 200 200"><defs><style>.cls-1{fill:#2f2912;}.cls-1,.cls-2,.cls-3{fill-rule:evenodd;}.cls-2{fill:#ffda00;}.cls-3{fill:#e42b2b;}</style></defs><title>Schellen</title><path class="cls-1" d="M49.59,49.59a74.69,74.69,0,0,0-6.1,6.93,10.23,10.23,0,0,1-1.31-1.09A9.37,9.37,0,1,1,56.52,43.49,74.69,74.69,0,0,0,49.59,49.59ZM37.24,66.11A71.71,71.71,0,1,0,66.11,37.24a20.16,20.16,0,0,0-2.59-3.15A20.81,20.81,0,0,0,34.09,63.52,20.16,20.16,0,0,0,37.24,66.11Z"/><path class="cls-2" d="M69.31,38.61c-1.38,6.13-3.35,12.5-4.84,18.46.76-2,5.36-13.5,8.59-20.11C72,43.31,69.85,50,68.42,56.27c.92-2.38,7-18.38,8.69-20.89a187.27,187.27,0,0,1-4.3,19.94c2.18-5.3,5.61-16,8.48-21.16-.59,5.58-2.78,13.9-4.76,20.28,1.81-4.2,6.1-15.93,9.09-21.27-1,6-3.33,14.07-5.25,20.83.85-2.2,7.36-18.19,9-21.33A195.7,195.7,0,0,1,84,53.89C85.05,51.6,90.32,37.27,93.62,32c-1.44,6-3.89,14.94-6.05,21.8C90,48.54,95.34,35.37,97.7,31.63c-1.28,6.74-3.85,14.58-6.38,22.12,2.06-5,7-15.59,10.46-22.2a235.55,235.55,0,0,1-6.87,22.63c1.43-2.93,7.23-16.56,10.82-22.28a214.19,214.19,0,0,1-7.4,22.94c2.17-4.36,9-19.85,11.2-22.6A230,230,0,0,1,102,55.58c1.37-2.63,8.68-18.32,11.63-22.67a226.05,226.05,0,0,1-8.07,23.82c3.37-6.09,8.29-17.6,12-23-1.93,8.42-5.42,17-8.57,25.29,3.92-7.82,7.94-15.66,12.45-24.45A126.17,126.17,0,0,1,89.2,89.2a126.12,126.12,0,0,1-54.62,32.19A69.2,69.2,0,0,1,39,68.5c-.64,2.44-1.21,4.93-1.64,7.42.68-1.91,4.24-12.46,6.88-15.72-.65,3.52-2.13,8.13-2.91,11.27,1.34-4,5-12.91,7-15.87-1,4.31-2,8.11-3,12.28,1.49-4,5-14,7.39-17.49-.41,2.86-3,12.7-3.58,14.67,1.54-3.75,4.87-13.37,7.59-18-1.1,5.77-2.48,10.65-3.84,15.76,1.49-3.73,5.37-14.66,8-18.88-.59,4.74-2.87,11.23-4.19,16.5C57.29,58.51,62.4,45.59,65,41c-1,6.29-2.87,11.72-4.41,17.64C61.43,56.5,67,42,69.31,38.61ZM146.06,152a69.05,69.05,0,0,1-86.71,3.91,166.57,166.57,0,0,0,58.53-38,166.63,166.63,0,0,0,37.66-57.69c-3.12,11.81-8.92,23.2-14.87,33.91,5.16-7.25,14.47-23.93,17.74-29.71-3.24,11.74-9.62,22.3-15.93,32.82,6.06-8,14.46-22.36,18.41-27.46-4.49,11-10.74,21.18-17.18,30.78,5.1-6.1,15.2-22.39,19.23-26-4.2,10.41-11.18,20-17.95,29.19,5.1-5.69,17.2-21.54,20-24.29-4.3,8.45-12.71,19.53-19.64,28.24,4.39-4.39,17.35-20.56,20.91-23.41-5.27,9.54-12.92,18.44-20.48,27.15,5.57-5.09,18.25-19.84,21.4-21.95-5.34,8.84-14.26,18.8-21.55,26.74,7.52-7.11,14.94-14.53,22-21.61-1.52,4.9-12.76,16.3-19.95,23.7a20.57,20.57,0,0,0-3.64-2.1c-10-4.52-19.91,1.32-22.19,10.13-1.38,5.34,0,11.39,5,14.31a10.76,10.76,0,0,0,11.64-18.08c2.51-2.6,6.65-1.77,9.37.09-1.66,1.58-2.93,2.78-3.53,3.39.76-.59,2.1-1.74,3.79-3.2l.24.19a11.22,11.22,0,0,1,1.8,1.78c-2.05,1.9-4.1,3.8-6.05,5.67,1.72-1.41,4-3.27,6.35-5.29a14.4,14.4,0,0,1,1.44,2.4c-3.06,2.71-6.17,5.3-9.25,7.88,2.62-1.9,6.07-4.45,9.6-7.09a18.12,18.12,0,0,1,.8,2.39c-4,3.4-8.42,6.87-13,10.31,2.5-1.51,8-5.27,13.29-9a18.25,18.25,0,0,1,.27,2.43c-5,4-10.63,7.82-15.89,11.67,3.39-2,10.27-6.73,15.89-10.46l0,.69c0,.61-.11,1.21-.2,1.81-5.87,4.77-12.94,9.67-19.17,13.86,3-1.6,12.84-8,18.76-11.82-.18.74-.39,1.46-.63,2.18-6.52,5.88-14.94,10.75-23.17,15.35a207.31,207.31,0,0,0,21.31-11.64A94.45,94.45,0,0,1,123.8,163.5,108.56,108.56,0,0,0,146.06,152Zm1.86-33.57c6.76-6,13.33-12.17,19.89-18.14-3.13,5.9-11.65,14.44-17.6,20.14A19.19,19.19,0,0,0,147.92,118.38Zm2.6,2.32c5.78-5,13.66-12,17.18-14.48-3.85,5.59-9.6,11.15-15.45,16.61A21.76,21.76,0,0,0,150.52,120.7Zm2.08,2.66c5.62-4.72,11.65-9.77,14.24-11.69a99,99,0,0,1-12.92,14A19.48,19.48,0,0,0,152.6,123.36Zm1.77,3.38c4.51-3.41,8.87-6.8,11.43-9a73.83,73.83,0,0,1-10.69,11.21A19,19,0,0,0,154.37,126.74Zm1.12,3.78c3.44-2.41,6.62-4.67,8.7-6.13a61.77,61.77,0,0,1-8.37,8.25C155.74,131.93,155.63,131.21,155.49,130.52Zm.43,3.63c2.44-1.59,4.46-2.86,5.55-3.43a64.36,64.36,0,0,1-5.57,5.33C155.93,135.42,155.94,134.78,155.92,134.15Zm-.26,4.31,1.33-.86c-.47.56-1,1.11-1.47,1.66Z"/><path class="cls-3" d="M40.28,40.28a12.05,12.05,0,0,0,0,17,10.84,10.84,0,0,0,1.61,1.36c-.35.49-.7,1-1,1.49A13.5,13.5,0,0,1,39,58.62,13.88,13.88,0,1,1,58.62,39a12.41,12.41,0,0,1,1.56,1.86l-1.49,1a10.84,10.84,0,0,0-1.36-1.61A12.05,12.05,0,0,0,40.28,40.28ZM39.8,61.77c-.42.66-.83,1.32-1.22,2A17.87,17.87,0,0,1,36,61.62,18.12,18.12,0,0,1,61.62,36a17.87,17.87,0,0,1,2.14,2.58c-.67.39-1.33.8-2,1.22a15.79,15.79,0,1,0-22,22Z"/><path class="cls-3" d="M153.91,56.84A163.68,163.68,0,0,1,116,116a163.68,163.68,0,0,1-59.13,37.94,70.61,70.61,0,0,1-5.34-4.82q-.69-.68-1.35-1.38a155.73,155.73,0,0,0,60.1-37.46,155.7,155.7,0,0,0,37.46-60.09c.47.44.93.88,1.38,1.34A70.61,70.61,0,0,1,153.91,56.84ZM38.69,131.43a71.42,71.42,0,0,1-3.24-7.49A128.72,128.72,0,0,0,91.1,91.1a128.72,128.72,0,0,0,32.84-55.65,71.42,71.42,0,0,1,7.49,3.24A136.87,136.87,0,0,1,96.82,96.82,136.77,136.77,0,0,1,38.69,131.43Z"/></svg>