<svg id="Layer_1" data-name="Layer 1" xmlns="http://www.w3.org/2000/svg" viewBox="0 0 200 200"><defs><style>.cls-1{fill:#2f2912;}.cls-1,.cls-2,.cls-3,.cls-4{fill-rule:evenodd;}.cls-2{fill:#fff;}.cls-3{fill:#ffda00;}.cls-4{fill:#e42b2b;}</style></defs><title>Rosen</title><path class="cls-1" d="M146.7,55c14.47.84,22.07,14.1,15.63,27.09C159.37,88,163.41,96.7,169,100c-5.57,3.3-9.61,12-6.64,17.92,6.44,13-1.18,26.18-15.64,27.1-6.58.35-12.13,8.26-12.21,14.71-5.63-3.16-15.25-2.3-18.85,3.21-8,12.08-23.25,12.08-31.28,0-3.6-5.51-13.22-6.37-18.85-3.21-.07-6.45-5.63-14.36-12.2-14.71-14.47-.92-22.08-14.1-15.64-27.09C40.63,112,36.59,103.3,31,100c5.57-3.3,9.61-12,6.65-17.93C31.23,69.08,38.84,55.9,53.31,55c6.57-.35,12.13-8.26,12.2-14.72,5.63,3.17,15.26,2.31,18.85-3.21,8-12.07,23.25-12.07,31.28,0,3.6,5.52,13.22,6.38,18.85,3.21C134.57,46.72,140.12,54.6,146.7,55Z"/><path class="cls-2" d="M132.38,46.88a18.89,18.89,0,0,1-.6-1.93,17.81,17.81,0,0,1-2,.45l-8,16.85ZM70.19,45.4a18,18,0,0,1-2-.45,16.68,16.68,0,0,1-.6,1.93L78.2,62.25ZM37.81,98.52A18.91,18.91,0,0,1,36.44,100a18.91,18.91,0,0,1,1.37,1.48L56.41,100Zm29.81,54.6a17.14,17.14,0,0,1,.6,1.92c.66-.18,1.32-.33,2-.44l8-16.85Zm62.2,1.48c.65.11,1.3.26,2,.44a19.5,19.5,0,0,1,.6-1.92L121.8,137.75Zm32.38-53.12a17,17,0,0,1,1.36-1.48,17,17,0,0,1-1.36-1.48L143.59,100Z"/><path class="cls-3" d="M84.64,76.51c-6-10.34-19.65-19-31.12-18.25C41.39,59,35.21,69.72,40.61,80.62,45.72,90.92,60,98.42,72,98.44a26,26,0,0,1,.44-3.61A51.73,51.73,0,0,1,62.68,93a47.7,47.7,0,0,1-9-4.07C59.67,91.36,67,93,72,91.77a50.24,50.24,0,0,1-11.62-4.6C65.75,89,68.28,89.45,73,88.79c-3.3-.86-6-2.07-10.49-5.27A42.69,42.69,0,0,0,71.71,86l2.59.39-8.37-6.08c3.2,1.27,6.43,2.48,9.63,3.76a46.47,46.47,0,0,0-9.06-8.78,57.52,57.52,0,0,1,10.73,6.34C75,77,71.36,73.85,67.5,70.86c5.17,2.58,7.83,5.11,11.74,8.53C77,73.64,71.56,69,67,65.41c6.3,3.24,10.65,7.71,14.86,13.21A27.23,27.23,0,0,1,84.64,76.51Z"/><path class="cls-4" d="M100,75.36A24.64,24.64,0,1,1,75.36,100,24.64,24.64,0,0,1,100,75.36Z"/><path class="cls-3" d="M112.66,75c6-10.37,6.61-26.51.25-36.08-6.73-10.11-19.08-10.11-25.81,0-6.37,9.57-5.72,25.72.24,36.08a28.33,28.33,0,0,1,3.35-1.43,51.86,51.86,0,0,1-3.25-9.36,47.63,47.63,0,0,1-1-9.81c.85,6.4,3.11,13.57,6.66,17.28A50.35,50.35,0,0,1,91.3,59.29c1.14,5.53,2,8,4.92,11.75-.9-3.29-1.19-6.21-.68-11.72A43,43,0,0,0,98,68.49l1,2.44L100,60.64c.5,3.4,1.06,6.81,1.55,10.22a46.39,46.39,0,0,0,3.07-12.24,56.42,56.42,0,0,1-.12,12.47c2.92-4.27,3.78-9,4.45-13.8.35,5.76-.51,9.33-1.52,14.42,3.88-4.78,5.18-11.86,6-17.62.33,7.08-1.36,13.08-4,19.47A28.05,28.05,0,0,1,112.66,75Z"/><path class="cls-3" d="M128,98.44c11.95,0,26.25-7.53,31.36-17.83,5.4-10.89-.78-21.58-12.91-22.35-11.47-.73-25.12,7.91-31.12,18.25a26.78,26.78,0,0,1,2.92,2.19,51.46,51.46,0,0,1,6.48-7.5,47.62,47.62,0,0,1,8-5.74c-5.12,3.94-10.2,9.47-11.64,14.41a50.45,50.45,0,0,1,9.79-7.76c-4.23,3.74-5.92,5.7-7.72,10.14,2.39-2.43,4.78-4.14,9.8-6.45a43,43,0,0,0-6.71,6.71l-1.63,2.06,9.45-4.22c-2.7,2.13-5.37,4.33-8.08,6.46a46.57,46.57,0,0,0,12.13-3.46,56.45,56.45,0,0,1-10.85,6.13c5.16.39,9.66-1.22,14.18-3.06-4.82,3.19-8.34,4.23-13.25,5.91,6.08,1,12.86-1.44,18.24-3.64-6,3.83-12,5.36-18.87,6.26A29.41,29.41,0,0,1,128,98.44Z"/><path class="cls-3" d="M115.36,123.49c6,10.34,19.65,19,31.12,18.25,12.13-.77,18.31-11.46,12.91-22.35-5.1-10.3-19.41-17.8-31.37-17.83a27.71,27.71,0,0,1-.43,3.62,51,51,0,0,1,9.73,1.86,47.78,47.78,0,0,1,9,4.07c-6-2.47-13.3-4.1-18.3-2.87a50.14,50.14,0,0,1,11.61,4.59c-5.36-1.79-7.89-2.28-12.64-1.62,3.3.86,6,2.07,10.49,5.26a43.86,43.86,0,0,0-9.17-2.45l-2.59-.39,8.37,6.08c-3.2-1.27-6.43-2.48-9.63-3.76a46.4,46.4,0,0,0,9.06,8.77,56.41,56.41,0,0,1-10.73-6.33c2.24,4.66,5.88,7.76,9.73,10.75-5.17-2.58-7.83-5.11-11.74-8.53,2.21,5.75,7.69,10.43,12.28,14-6.3-3.25-10.65-7.71-14.86-13.22A27.23,27.23,0,0,1,115.36,123.49Z"/><path class="cls-3" d="M87.34,125.05c-6,10.37-6.61,26.51-.24,36.08,6.73,10.11,19.08,10.11,25.81,0,6.36-9.57,5.71-25.72-.25-36.08a27.64,27.64,0,0,1-3.35,1.43,52.17,52.17,0,0,1,3.26,9.36,48.41,48.41,0,0,1,1,9.81c-.85-6.4-3.1-13.57-6.66-17.28a50.36,50.36,0,0,1,1.83,12.35c-1.13-5.54-2-8-4.92-11.76.9,3.29,1.19,6.21.68,11.72a43,43,0,0,0-2.46-9.17l-1-2.44c-.35,3.43-.72,6.86-1.08,10.29-.49-3.4-1.06-6.81-1.55-10.22a46.81,46.81,0,0,0-3.07,12.23,56.34,56.34,0,0,1,.12-12.46c-2.92,4.27-3.78,9-4.45,13.81-.35-5.77.52-9.34,1.52-14.43-3.88,4.79-5.18,11.86-6,17.62-.34-7.08,1.35-13.08,4-19.47A28.05,28.05,0,0,1,87.34,125.05Z"/><path class="cls-3" d="M72,101.56c-12,0-26.26,7.53-31.37,17.83-5.4,10.89.78,21.58,12.91,22.35,11.47.73,25.12-7.91,31.12-18.25a28,28,0,0,1-2.91-2.19,52.16,52.16,0,0,1-6.48,7.5,48.16,48.16,0,0,1-8,5.74c5.12-3.94,10.2-9.47,11.64-14.41a49.64,49.64,0,0,1-9.78,7.76c4.23-3.74,5.92-5.7,7.72-10.13-2.4,2.42-4.79,4.13-9.8,6.44a43,43,0,0,0,6.7-6.71l1.64-2-9.46,4.21c2.71-2.14,5.37-4.33,8.08-6.46a46.57,46.57,0,0,0-12.13,3.46,56,56,0,0,1,10.86-6.12c-5.16-.4-9.67,1.2-14.18,3,4.82-3.19,8.34-4.23,13.25-5.91-6.08-1-12.86,1.45-18.25,3.64,6-3.83,12-5.36,18.87-6.26A27.44,27.44,0,0,1,72,101.56Z"/><path class="cls-1" d="M103.79,104.88c3.87.13,9.12-1,12.83-1.69a65.39,65.39,0,0,1-13.75,6.71c3.88-.25,9.58-1.93,13.28-2.89a53,53,0,0,1-13.87,8.2c4.12-.51,8.66-2.62,12.46-4a29.82,29.82,0,0,1-11.83,9.32A20.71,20.71,0,0,0,100,79.29a21.55,21.55,0,0,0-2.79.18c7.54.72,11,3,16.08,7.42-4.09-1.56-8.88-2.82-13.28-2.49a43,43,0,0,1,15.35,6.43,88,88,0,0,0-13.79-1.66c4.94,1.28,11,3.25,14.1,5.44a66.22,66.22,0,0,0-13-.57,86.2,86.2,0,0,1,14.74,4.29c-4.17-.07-9.9-.4-14.1.27,3.76.36,9.94,1.28,13,2A62.61,62.61,0,0,1,103.79,104.88Z"/></svg>